<?xml version="1.0" encoding="UTF-8" standalone="no"?>
<svg width="91px" height="91px" viewBox="0 0 91 91" version="1.1" xmlns="http://www.w3.org/2000/svg" xmlns:xlink="http://www.w3.org/1999/xlink" xmlns:sketch="http://www.bohemiancoding.com/sketch/ns">
    <!-- Generator: Sketch 3.4 (15575) - http://www.bohemiancoding.com/sketch -->
    <title>ava</title>
    <desc>Created with Sketch.</desc>
    <defs></defs>
    <g id="Page-1" stroke="none" stroke-width="1" fill="none" fill-rule="evenodd" sketch:type="MSPage">
        <g id="Tour" sketch:type="MSLayerGroup" transform="translate(-100.000000, -648.000000)">
            <g id="cocktail" transform="translate(100.000000, 648.000000)" sketch:type="MSShapeGroup">
                <g id="Rectangle_37" transform="translate(16.615385, 27.692308)" fill="#F1A9C1">
                    <path d="M0,0 L24.9230769,24.9230769 L49.8461538,0 L0,0 Z" id="Shape"></path>
                </g>
                <g id="Rectangle_36" transform="translate(29.076923, 24.923077)" fill="#D7F0FC">
                    <path d="M0,8.30769231 L8.30769231,8.30769231 L8.30769231,0 L0,0 L0,8.30769231 L0,8.30769231 Z M20.7692308,0.0110769231 L15.2307692,5.53846154 L20.7692308,11.0769231 L26.3076923,5.53846154 L20.7692308,0.0110769231 L20.7692308,0.0110769231 Z" id="Shape"></path>
                </g>
                <g id="Ellipse_51" transform="translate(60.923077, 5.538462)" fill="#FFDCA5">
                    <circle id="Oval" cx="13.8461538" cy="13.8461538" r="13.8461538"></circle>
                </g>
                <g id="Ellipse_52" transform="translate(60.923077, 5.538462)" fill="#EEB183">
                    <path d="M13.8461538,0 C6.20030769,0 0,6.20030769 0,13.8461538 C0,21.492 6.20030769,27.6923077 13.8461538,27.6923077 C21.492,27.6923077 27.6923077,21.492 27.6923077,13.8461538 C27.6923077,6.20030769 21.492,0 13.8461538,0 L13.8461538,0 Z M13.8461538,22.1538462 C9.25892308,22.1538462 5.53846154,18.4333846 5.53846154,13.8461538 C5.53846154,9.25892308 9.25892308,5.53846154 13.8461538,5.53846154 C18.4333846,5.53846154 22.1538462,9.25892308 22.1538462,13.8461538 C22.1538462,18.4333846 18.4333846,22.1538462 13.8461538,22.1538462 L13.8461538,22.1538462 Z" id="Shape"></path>
                </g>
                <g id="Rectangle_60" transform="translate(2.769231, 1.384615)" fill="#99CF8F">
                    <path d="M10.4773846,1.95230769 C9.11353846,0.580153846 5.79738462,1.69338462 3.06830769,4.43769231 C0.340615385,7.18338462 -0.765692308,10.5216923 0.599538462,11.8938462 C1.962,13.266 5.28092308,12.1541538 8.01,9.40846154 C10.7363077,6.66276923 11.8426154,3.32446154 10.4773846,1.95230769 L10.4773846,1.95230769 Z" id="Shape"></path>
                </g>
                <g id="Rounded_Rectangle_29" fill="#3A3F46">
                    <path d="M74.7692308,4.15384615 C66.8256923,4.15384615 60.3096923,10.2378462 59.6090769,18 L19.9730769,18 L13.0569231,11.0838462 C15.4301538,8.06123077 15.9216923,4.43630769 14.0386154,2.54076923 C12.1583077,0.648 8.55969231,1.13953846 5.55784615,3.52246154 L3.82984615,1.79446154 C3.26769231,1.23369231 2.358,1.23369231 1.79446154,1.79446154 C1.23369231,2.35661538 1.23369231,3.26630769 1.79446154,3.82984615 L3.52938462,5.56476923 C1.17830769,8.58046154 0.700615385,12.186 2.57676923,14.0732308 C4.464,15.9743077 8.082,15.4689231 11.0907692,13.0638462 L16.0269231,18 L8.38661538,18 C7.99892308,17.9695385 7.60430769,18.0858462 7.30661538,18.3835385 C6.89123077,18.7989231 6.804,19.4095385 7.02969231,19.9149231 C7.09338462,20.0672308 7.18892308,20.2015385 7.29830769,20.3192308 C7.30246154,20.3233846 7.30246154,20.3275385 7.30661538,20.3316923 C7.32461538,20.3496923 7.34123077,20.3663077 7.35923077,20.3843077 L15.6143077,28.6393846 C15.6323077,28.6573846 15.6489231,28.674 15.6669231,28.692 L38.7692308,51.7943077 L38.7692308,87.2307692 L26.3076923,87.2307692 C25.542,87.2307692 24.9230769,87.8496923 24.9230769,88.6153846 C24.9230769,89.3810769 25.542,90 26.3076923,90 L56.7692308,90 C57.5349231,90 58.1538462,89.3810769 58.1538462,88.6153846 C58.1538462,87.8496923 57.5349231,87.2307692 56.7692308,87.2307692 L44.3076923,87.2307692 L44.3076923,51.7943077 L65.0201538,31.0818462 C67.662,33.2861538 71.0584615,34.6153846 74.7692308,34.6153846 C83.1807692,34.6153846 90,27.7961538 90,19.3846154 C90,10.9730769 83.1807692,4.15384615 74.7692308,4.15384615 L74.7692308,4.15384615 Z M10.6421538,9.75876923 C10.4386154,9.82523077 10.2447692,9.92353846 10.0841538,10.0841538 C9.92215385,10.2475385 9.82384615,10.4427692 9.75738462,10.6490769 C7.74692308,12.4504615 5.46784615,13.1372308 4.48615385,12.1513846 C3.50446154,11.1641538 4.19261538,8.86430769 5.98984615,6.83723077 C6.17953846,6.768 6.36092308,6.66553846 6.51323077,6.51323077 C6.66692308,6.35815385 6.77076923,6.17538462 6.84,5.98292308 C8.856,4.16907692 11.1447692,3.474 12.1292308,4.464 C13.1067692,5.44846154 12.4269231,7.73723077 10.6421538,9.75876923 L10.6421538,9.75876923 Z M59.6090769,20.7692308 C59.7890769,22.7630769 60.3512308,24.6447692 61.2235385,26.3423077 C61.1155385,26.3215385 61.0130769,26.3076923 60.9230769,26.3076923 L53.8490769,26.3076923 L51.8967692,24.3553846 C50.7766154,23.2352308 48.9613846,23.2352308 47.8412308,24.3553846 L45.8889231,26.3076923 L38.7692308,26.3076923 C38.7692308,24.7790769 37.5286154,23.5384615 36,23.5384615 L30.4615385,23.5384615 C29.1156923,23.5384615 27.9955385,24.4993846 27.7463077,25.7732308 L22.7423077,20.7692308 L59.6090769,20.7692308 L59.6090769,20.7692308 Z M53.9778462,30.4615385 L49.8461538,34.5918462 L45.7158462,30.4615385 L49.8461538,26.3312308 L53.9778462,30.4615385 L53.9778462,30.4615385 Z M36,26.3076923 L36,31.8461538 L30.4615385,31.8461538 L30.4615385,26.3076923 L36,26.3076923 L36,26.3076923 Z M11.6404615,20.7692308 L18.7947692,20.7692308 L24.3332308,26.3076923 L17.1789231,26.3076923 L11.6404615,20.7692308 L11.6404615,20.7692308 Z M41.9704615,50.2324615 C41.7073846,50.4858462 41.5384615,50.8361538 41.5384615,51.2307692 C41.5384615,50.8347692 41.3681538,50.4830769 41.1023077,50.2296923 L19.9481538,29.0769231 L27.6923077,29.0769231 L27.6923077,31.8461538 C27.6923077,33.3747692 28.9329231,34.6153846 30.4615385,34.6153846 L36,34.6153846 C37.5286154,34.6153846 38.7692308,33.3747692 38.7692308,31.8461538 L38.7692308,29.0769231 L43.3038462,29.0769231 C42.714,30.1638462 42.8663077,31.5470769 43.7856923,32.4664615 L47.8412308,36.5233846 C48.9613846,37.6435385 50.7766154,37.6435385 51.8967692,36.5233846 L55.9536923,32.4664615 C56.8730769,31.5470769 57.024,30.1638462 56.4355385,29.0769231 L63.0290769,29.0769231 C63.0456923,29.0949231 63.0581538,29.1156923 63.0733846,29.1336923 L41.9704615,50.2324615 L41.9704615,50.2324615 Z M62.3893846,20.7692308 L65.1876923,20.7692308 C65.4244615,22.4113846 66.0683077,23.9178462 67.0195385,25.1861538 L65.0423077,27.162 C63.6064615,25.3703077 62.6552308,23.1743077 62.3893846,20.7692308 L62.3893846,20.7692308 Z M74.7692308,31.8461538 C71.8241538,31.8461538 69.1227692,30.8187692 66.9904615,29.1115385 L68.9676923,27.1356923 C70.5863077,28.3486154 72.5898462,29.0769231 74.7692308,29.0769231 C80.1221538,29.0769231 84.4615385,24.7375385 84.4615385,19.3846154 C84.4615385,14.0316923 80.1221538,9.69230769 74.7692308,9.69230769 C69.8884615,9.69230769 65.8592308,13.3047692 65.1863077,18 L62.388,18 C63.0789231,11.7692308 68.3543077,6.92307692 74.7692308,6.92307692 C81.6521538,6.92307692 87.2307692,12.5016923 87.2307692,19.3846154 C87.2307692,26.2675385 81.6521538,31.8461538 74.7692308,31.8461538 L74.7692308,31.8461538 Z M75.7703077,18.3835385 C75.474,18.0858462 75.078,17.9695385 74.6903077,18 L67.986,18 C68.6284615,14.8403077 71.4198462,12.4615385 74.7692308,12.4615385 C78.5935385,12.4615385 81.6923077,15.5603077 81.6923077,19.3846154 C81.6923077,23.2089231 78.5935385,26.3076923 74.7692308,26.3076923 C73.3555385,26.3076923 72.0443077,25.8798462 70.9490769,25.1529231 L75.7163077,20.3856923 C75.7356923,20.3676923 75.7509231,20.3524615 75.7689231,20.3330769 C75.7716923,20.3303077 75.7730769,20.3261538 75.7758462,20.322 C75.8866154,20.2029231 75.9821538,20.0686154 76.0458462,19.9163077 C76.2715385,19.4095385 76.1843077,18.7989231 75.7703077,18.3835385 L75.7703077,18.3835385 Z M71.4364615,20.7692308 L69.0009231,23.2047692 C68.5176923,22.4764615 68.1646154,21.6553846 67.986,20.7692308 L71.4364615,20.7692308 L71.4364615,20.7692308 Z M40.1538462,41.5384615 C39.3881538,41.5384615 38.7692308,42.1573846 38.7692308,42.9230769 C38.7692308,43.6887692 39.3881538,44.3076923 40.1538462,44.3076923 C40.9195385,44.3076923 41.5384615,43.6887692 41.5384615,42.9230769 C41.5384615,42.1573846 40.9195385,41.5384615 40.1538462,41.5384615 L40.1538462,41.5384615 Z M45.6923077,38.7692308 C44.9266154,38.7692308 44.3076923,39.3881538 44.3076923,40.1538462 C44.3076923,40.9195385 44.9266154,41.5384615 45.6923077,41.5384615 C46.458,41.5384615 47.0769231,40.9195385 47.0769231,40.1538462 C47.0769231,39.3881538 46.458,38.7692308 45.6923077,38.7692308 L45.6923077,38.7692308 Z M34.6153846,36 C33.8496923,36 33.2307692,36.6189231 33.2307692,37.3846154 C33.2307692,38.1503077 33.8496923,38.7692308 34.6153846,38.7692308 C35.3810769,38.7692308 36,38.1503077 36,37.3846154 C36,36.6189231 35.3810769,36 34.6153846,36 L34.6153846,36 Z M41.5384615,34.6153846 C40.7727692,34.6153846 40.1538462,35.2343077 40.1538462,36 C40.1538462,36.7656923 40.7727692,37.3846154 41.5384615,37.3846154 C42.3041538,37.3846154 42.9230769,36.7656923 42.9230769,36 C42.9230769,35.2343077 42.3041538,34.6153846 41.5384615,34.6153846 L41.5384615,34.6153846 Z" id="Shape"></path>
                </g>
            </g>
        </g>
    </g>
</svg>