<?xml version="1.0" encoding="UTF-8" standalone="no"?>
<svg width="95px" height="96px" viewBox="0 0 95 96" version="1.1" xmlns="http://www.w3.org/2000/svg" xmlns:xlink="http://www.w3.org/1999/xlink" xmlns:sketch="http://www.bohemiancoding.com/sketch/ns">
    <!-- Generator: Sketch 3.4 (15575) - http://www.bohemiancoding.com/sketch -->
    <title>ava</title>
    <desc>Created with Sketch.</desc>
    <defs></defs>
    <g id="Page-1" stroke="none" stroke-width="1" fill="none" fill-rule="evenodd" sketch:type="MSPage">
        <g id="Tour" sketch:type="MSLayerGroup" transform="translate(-100.000000, -1137.000000)">
            <g id="palm-tree" transform="translate(100.000000, 1137.000000)" sketch:type="MSShapeGroup">
                <g id="Rectangle_6" transform="translate(37.109375, 28.061538)" fill="#B6967F">
                    <path d="M16.328125,2.95384615 L10.390625,0 L4.453125,2.95384615 L0,47.2615385 L20.78125,47.2615385 L16.328125,2.95384615 Z" id="Shape"></path>
                </g>
                <g id="Rectangle_7" transform="translate(7.421875, 2.953846)" fill="#83C68D">
                    <path d="M71.25,20.6769231 C68.9803906,18.2592 66.7419531,16.4544 64.6,15.1089231 L78.671875,11.8153846 C78.671875,11.8153846 77.8124219,0 60.859375,0 C50.5489063,0 43.0928906,5.07766154 40.078125,7.54412308 C37.0633594,5.07766154 29.6073437,0 19.296875,0 C2.34382812,0 1.484375,11.8153846 1.484375,11.8153846 L15.6378906,15.1281231 C13.454375,16.4573538 11.1847656,18.2562462 8.90625,20.6769231 C-1.82578125,32.0772923 1.71445312,44.3076923 1.71445312,44.3076923 L40.078125,25.4296615 L78.4417969,44.3076923 C78.4417969,44.3076923 82.0250781,32.1526154 71.25,20.6769231 L71.25,20.6769231 Z" id="Shape"></path>
                </g>
                <g id="Ellipse_30" transform="translate(1.484375, 75.323077)" fill="#F8E4B2">
                    <path d="M46.015625,0 C20.6016406,0 0,9.92787692 0,19.2 L92.03125,19.2 C92.03125,10.2971077 71.4296094,0 46.015625,0 L46.015625,0 Z" id="Shape"></path>
                </g>
                <g id="Ellipse_3" fill="#2B3139">
                    <path d="M94.8975781,93.9913846 C93.0673438,84.5553231 78.4907812,76.8251077 59.2903906,74.5388308 L55.0554688,33.4759385 L85.3664063,48.5420308 C85.3842188,48.5523692 85.4035156,48.5508923 85.4213281,48.5612308 C85.5252344,48.6144 85.6380469,48.6439385 85.7553125,48.672 C85.8428906,48.6926769 85.9245313,48.7177846 86.0135938,48.7236923 C86.0403125,48.7236923 86.0640625,48.7384615 86.09375,48.7384615 C86.153125,48.7384615 86.2035937,48.7118769 86.2614844,48.7044923 C86.3802344,48.6926769 86.4945312,48.6749538 86.6073437,48.6350769 C86.66375,48.6144 86.7127344,48.5848615 86.7676562,48.5568 C86.8923437,48.4947692 87.0066406,48.4224 87.1105469,48.3264 C87.1372656,48.3012923 87.1565625,48.2747077 87.1803125,48.2481231 C87.2575,48.1668923 87.3435937,48.0989538 87.4014844,48 C87.4311719,47.9497846 87.4326562,47.8951385 87.4549219,47.8434462 C87.4578906,47.8360615 87.459375,47.8286769 87.4623438,47.8227692 C87.5425,47.6307692 87.5796094,47.4372923 87.5751562,47.2379077 L87.5751562,41.3538462 C87.5751562,31.9414154 82.9023437,23.6322462 75.7550781,18.5427692 L86.4648438,15.9699692 C87.2797656,15.7735385 87.7636719,15.0217846 87.5454687,14.2921846 C87.5157813,14.1932308 87.4504687,14.1164308 87.4,14.0292923 L87.5929688,13.9746462 C85.0917969,4.21513846 73.0757812,-0.899446154 60.7569531,2.55064615 C55.6655469,3.97587692 51.3400781,6.65058462 48.1709375,9.97661538 C44.8845313,6.67716923 40.4314063,4.01870769 35.2064062,2.58756923 C22.42,-0.911261538 9.97351563,4.19150769 7.4040625,13.9864615 L7.61039063,14.0425846 C7.56289062,14.1267692 7.49757813,14.2006154 7.469375,14.2966154 C7.25117187,15.0276923 7.73507813,15.7779692 8.55,15.9729231 L19.2419531,18.5427692 C12.0946875,23.6337231 7.421875,31.9428923 7.421875,41.3538462 L7.421875,47.2379077 C7.41890625,47.4358154 7.45453125,47.6307692 7.53617187,47.8227692 C7.53914062,47.8286769 7.53914062,47.8360615 7.54210937,47.8434462 C7.56585937,47.8951385 7.56734375,47.9512615 7.59554687,48 C7.6534375,48.0989538 7.74101562,48.1668923 7.81671875,48.2481231 C7.84195312,48.2747077 7.86125,48.3027692 7.88648437,48.3264 C7.991875,48.4224 8.1046875,48.4947692 8.23085937,48.5568 C8.28429687,48.5848615 8.33476562,48.6144 8.39117187,48.6350769 C8.50398437,48.6749538 8.61828125,48.6926769 8.73703125,48.7044923 C8.79640625,48.7118769 8.846875,48.7384615 8.90625,48.7384615 C8.9359375,48.7384615 8.9596875,48.7236923 8.98789063,48.7222154 C9.07546875,48.7163077 9.15859375,48.6926769 9.2446875,48.6705231 C9.36195312,48.6424615 9.47328125,48.6129231 9.57867187,48.5597538 C9.59648437,48.5508923 9.61726562,48.5508923 9.63507812,48.5405538 L39.9460156,33.4744615 L35.7096094,74.5373538 C16.5092187,76.8251077 1.93414062,84.5553231 0.102421875,93.9913846 C0.03859375,94.1568 0,94.3340308 0,94.5230769 C0,95.3398154 0.663515625,96 1.484375,96 L93.515625,96 C94.3364844,96 95,95.3398154 95,94.5230769 C95,94.3340308 94.9614062,94.1568 94.8975781,93.9913846 L94.8975781,93.9913846 Z M10.390625,44.8644923 L10.390625,41.3538462 C10.390625,27.6169846 21.4833594,16.4721231 35.2390625,16.2653538 L28.9230469,19.3979077 C28.2105469,19.8055385 27.9641406,20.7094154 28.3767969,21.4153846 C28.7894531,22.1228308 29.7023438,22.3650462 30.4148438,21.9559385 L42.3254687,16.0482462 C42.3477344,16.0349538 42.3596094,16.0142769 42.381875,15.9995077 C42.4828125,15.9315692 42.5733594,15.8488615 42.6564844,15.7602462 C42.7529688,15.6553846 42.8271875,15.5416615 42.8895313,15.4176 C42.9058594,15.3865846 42.9221875,15.3555692 42.9355469,15.3245538 C43.0735938,14.9922462 43.0825,14.6304 42.9563281,14.2803692 C42.9444531,14.2493538 42.9355469,14.2153846 42.9236719,14.1858462 C42.9014063,14.1356308 42.8999219,14.0824615 42.8732031,14.0322462 C42.6520313,13.6526769 42.2853906,13.4119385 41.8816406,13.3292308 C41.8608594,13.3248 41.8400781,13.3218462 41.8178125,13.3188923 C41.7510156,13.3070769 41.6827344,13.2996923 41.6144531,13.2982154 C41.5966406,13.2967385 41.5803125,13.2923077 41.5625,13.2923077 L35.625,13.2923077 C30.9032031,13.2923077 26.4619531,14.4620308 22.5521094,16.5016615 L10.6785937,13.6482462 C13.4855469,6.24738462 23.7752344,2.62596923 34.4285938,5.54289231 C39.2082812,6.85144615 43.2739844,9.26621538 46.2085937,12.2363077 C46.2085937,12.2363077 47.1675,13.2923077 48.2421875,13.2923077 C48.9235156,13.2923077 49.5721875,12.7488 50.219375,12.0768 C53.0367188,9.15249231 56.9302344,6.7776 61.5110156,5.49563077 C71.7725,2.62153846 81.7029687,6.25033846 84.43125,13.6216615 L72.4449219,16.5001846 C68.5365625,14.4620308 64.0953125,13.2923077 59.375,13.2923077 L53.4375,13.2923077 C53.4196875,13.2923077 53.4033594,13.2967385 53.3855469,13.2982154 C53.3172656,13.2996923 53.2489844,13.3070769 53.1821875,13.3188923 C53.1599219,13.3218462 53.1391406,13.3248 53.1183594,13.3292308 C52.7160937,13.4104615 52.3494531,13.6512 52.1267969,14.0307692 C52.0985937,14.0795077 52.0971094,14.1326769 52.0763281,14.1843692 C52.0629687,14.2153846 52.0540625,14.2478769 52.0436719,14.2788923 C51.9175,14.6289231 51.9264062,14.9907692 52.0644531,15.3230769 C52.0778125,15.3540923 52.095625,15.3851077 52.1104688,15.4161231 C52.1728125,15.5401846 52.2470312,15.6539077 52.3435156,15.7587692 C52.4266406,15.8488615 52.5157031,15.9300923 52.618125,15.9980308 C52.6403906,16.0128 52.6522656,16.0334769 52.6745312,16.0467692 L64.5851562,21.9544615 C65.2976562,22.3620923 66.2105469,22.1198769 66.6232031,21.4139077 C67.034375,20.7064615 66.7894531,19.8040615 66.0769531,19.3964308 L59.7609375,16.2638769 C73.5166406,16.4721231 84.609375,27.6169846 84.609375,41.3538462 L84.609375,44.8644923 L48.2273438,26.7825231 C48.2080469,26.7721846 48.1872656,26.7721846 48.1679688,26.7633231 C48.034375,26.6983385 47.8992969,26.6481231 47.7523438,26.6244923 C47.66625,26.6082462 47.5846094,26.6082462 47.4985156,26.6067692 C47.4124219,26.6067692 47.3307813,26.6082462 47.2446875,26.6244923 C47.0977344,26.6481231 46.9641406,26.6968615 46.8290625,26.7633231 C46.8097656,26.7721846 46.7889844,26.7721846 46.7696875,26.7825231 L10.390625,44.8644923 L10.390625,44.8644923 Z M39.235,67.9384615 L44.53125,67.9384615 C45.3521094,67.9384615 46.015625,67.2782769 46.015625,66.4615385 C46.015625,65.6448 45.3521094,64.9846154 44.53125,64.9846154 L39.5392969,64.9846154 L41.0622656,50.2153846 L46.015625,50.2153846 C46.8364844,50.2153846 47.5,49.5552 47.5,48.7384615 C47.5,47.9217231 46.8364844,47.2615385 46.015625,47.2615385 L41.3665625,47.2615385 L42.9429687,31.9857231 L47.5,29.7201231 L52.0570313,31.9857231 L52.7190625,38.4 L48.984375,38.4 C48.1635156,38.4 47.5,39.0601846 47.5,39.8769231 C47.5,40.6936615 48.1635156,41.3538462 48.984375,41.3538462 L53.0233594,41.3538462 L54.5463281,56.1230769 L48.984375,56.1230769 C48.1635156,56.1230769 47.5,56.7832615 47.5,57.6 C47.5,58.4167385 48.1635156,59.0769231 48.984375,59.0769231 L54.8521094,59.0769231 L56.4151562,74.2375385 C53.5265625,73.9820308 50.5474219,73.8461538 47.5,73.8461538 C44.4540625,73.8461538 41.4734375,73.9820308 38.5848437,74.2375385 L39.235,67.9384615 L39.235,67.9384615 Z M3.5684375,93.0461538 C6.8696875,83.8478769 25.2432813,76.8 47.5,76.8 C69.7567188,76.8 88.1303125,83.8478769 91.4315625,93.0461538 L3.5684375,93.0461538 L3.5684375,93.0461538 Z M16.328125,87.1384615 C15.5072656,87.1384615 14.84375,87.7986462 14.84375,88.6153846 C14.84375,89.4321231 15.5072656,90.0923077 16.328125,90.0923077 C17.1489844,90.0923077 17.8125,89.4321231 17.8125,88.6153846 C17.8125,87.7986462 17.1489844,87.1384615 16.328125,87.1384615 L16.328125,87.1384615 Z M25.234375,82.7076923 C24.4135156,82.7076923 23.75,83.3678769 23.75,84.1846154 C23.75,85.0013538 24.4135156,85.6615385 25.234375,85.6615385 C26.0552344,85.6615385 26.71875,85.0013538 26.71875,84.1846154 C26.71875,83.3678769 26.0552344,82.7076923 25.234375,82.7076923 L25.234375,82.7076923 Z M32.65625,87.1384615 C31.8353906,87.1384615 31.171875,87.7986462 31.171875,88.6153846 C31.171875,89.4321231 31.8353906,90.0923077 32.65625,90.0923077 C33.4771094,90.0923077 34.140625,89.4321231 34.140625,88.6153846 C34.140625,87.7986462 33.4771094,87.1384615 32.65625,87.1384615 L32.65625,87.1384615 Z M40.078125,82.7076923 C39.2572656,82.7076923 38.59375,83.3678769 38.59375,84.1846154 C38.59375,85.0013538 39.2572656,85.6615385 40.078125,85.6615385 C40.8989844,85.6615385 41.5625,85.0013538 41.5625,84.1846154 C41.5625,83.3678769 40.8989844,82.7076923 40.078125,82.7076923 L40.078125,82.7076923 Z M47.5,87.1384615 C46.6791406,87.1384615 46.015625,87.7986462 46.015625,88.6153846 C46.015625,89.4321231 46.6791406,90.0923077 47.5,90.0923077 C48.3208594,90.0923077 48.984375,89.4321231 48.984375,88.6153846 C48.984375,87.7986462 48.3208594,87.1384615 47.5,87.1384615 L47.5,87.1384615 Z M54.921875,82.7076923 C54.1010156,82.7076923 53.4375,83.3678769 53.4375,84.1846154 C53.4375,85.0013538 54.1010156,85.6615385 54.921875,85.6615385 C55.7427344,85.6615385 56.40625,85.0013538 56.40625,84.1846154 C56.40625,83.3678769 55.7427344,82.7076923 54.921875,82.7076923 L54.921875,82.7076923 Z M62.34375,87.1384615 C61.5228906,87.1384615 60.859375,87.7986462 60.859375,88.6153846 C60.859375,89.4321231 61.5228906,90.0923077 62.34375,90.0923077 C63.1646094,90.0923077 63.828125,89.4321231 63.828125,88.6153846 C63.828125,87.7986462 63.1646094,87.1384615 62.34375,87.1384615 L62.34375,87.1384615 Z M69.765625,82.7076923 C68.9447656,82.7076923 68.28125,83.3678769 68.28125,84.1846154 C68.28125,85.0013538 68.9447656,85.6615385 69.765625,85.6615385 C70.5864844,85.6615385 71.25,85.0013538 71.25,84.1846154 C71.25,83.3678769 70.5864844,82.7076923 69.765625,82.7076923 L69.765625,82.7076923 Z M77.1875,87.1384615 C76.3666406,87.1384615 75.703125,87.7986462 75.703125,88.6153846 C75.703125,89.4321231 76.3666406,90.0923077 77.1875,90.0923077 C78.0083594,90.0923077 78.671875,89.4321231 78.671875,88.6153846 C78.671875,87.7986462 78.0083594,87.1384615 77.1875,87.1384615 L77.1875,87.1384615 Z" id="Shape"></path>
                </g>
            </g>
        </g>
    </g>
</svg>