<?xml version="1.0" encoding="UTF-8" standalone="no"?>
<svg width="99px" height="84px" viewBox="0 0 99 84" version="1.1" xmlns="http://www.w3.org/2000/svg" xmlns:xlink="http://www.w3.org/1999/xlink" xmlns:sketch="http://www.bohemiancoding.com/sketch/ns">
    <!-- Generator: Sketch 3.4 (15575) - http://www.bohemiancoding.com/sketch -->
    <title>Slice 1</title>
    <desc>Created with Sketch.</desc>
    <defs></defs>
    <g id="Page-1" stroke="none" stroke-width="1" fill="none" fill-rule="evenodd" sketch:type="MSPage">
        <g id="hamburger" sketch:type="MSLayerGroup">
            <g id="Rectangle_34" transform="translate(2.500000, 1.500000)" fill="#EEC3A3" sketch:type="MSShapeGroup">
                <path d="M47,0 C25.4495,0 7.124,13.7775 0.3275,33 L93.6725,33 C86.876,13.7775 68.5505,0 47,0 L47,0 Z" id="Shape"></path>
            </g>
            <g id="Ellipse_50" transform="translate(3.000000, 58.500000)" fill="#EEC3A3" sketch:type="MSShapeGroup">
                <path d="M88.35,0 L74.3985,0 L21.7005,0 L1.5,0 L0,0 C0,13.2555 9.7155,24 21.7005,24 L71.2995,24 C83.2845,24 93,13.2555 93,0 L88.35,0 L88.35,0 Z" id="Shape"></path>
            </g>
            <g id="Rounded_Rectangle_27" transform="translate(6.000000, 34.500000)" fill="#AC805F" sketch:type="MSShapeGroup">
                <path d="M3,6 L84,6 C85.656,6 87,4.656 87,3 C87,1.344 85.656,0 84,0 L3,0 C1.344,0 0,1.344 0,3 C0,4.656 1.344,6 3,6 L3,6 Z M84,18 L3,18 C1.344,18 0,19.344 0,21 C0,22.656 1.344,24 3,24 L84,24 C85.656,24 87,22.656 87,21 C87,19.344 85.656,18 84,18 L84,18 Z" id="Shape"></path>
            </g>
            <g id="Rectangle_54" transform="translate(18.000000, 58.500000)" fill="#F48385" sketch:type="MSShapeGroup">
                <path d="M61.5,1.5 C59.844,1.5 58.5,2.844 58.5,4.5 L58.5,12 C58.5,13.656 59.844,15 61.5,15 C63.156,15 64.5,13.656 64.5,12 L64.5,4.5 C64.5,2.844 63.156,1.5 61.5,1.5 L61.5,1.5 Z M24,0 L21,0 L21,10.5 C21,12.156 22.344,13.5 24,13.5 C25.656,13.5 27,12.156 27,10.5 L27,9 C27,7.344 28.344,6 30,6 C31.656,6 33,7.344 33,9 L33,15 C33,16.656 34.344,18 36,18 C37.656,18 39,16.656 39,15 L39,0 L36,0 L24,0 L24,0 Z M3,1.5 C1.344,1.5 0,2.844 0,4.5 L0,12 C0,13.656 1.344,15 3,15 C4.656,15 6,13.656 6,12 L6,4.5 C6,2.844 4.656,1.5 3,1.5 L3,1.5 Z" id="Shape"></path>
            </g>
            <g id="Rectangle_35" transform="translate(13.500000, 58.500000)" fill="#FFD97D" sketch:type="MSShapeGroup">
                <path d="M16.5,10.5 L34.5,0 L0,0 L16.5,10.5 L16.5,10.5 Z M39,0 L55.5,10.5 L73.5,0 L39,0 L39,0 Z" id="Shape"></path>
            </g>
            <g id="Ellipse_50_1_" fill="#3A3F46" sketch:type="MSShapeGroup">
                <path d="M97.5,33 C97.8015,33.3105 97.5,32.9595 97.5,33 L97.5,33 L97.5,33 Z M1.5,33 C1.5,32.991 1.203,33.324 1.5,33 L1.5,33 L1.5,33 Z M49.5,0 C27.885,0 8.925,14.016 1.5,33 C1.5,34.656 2.844,36 4.5,36 L4.776,36 C4.608,36.471 4.5,36.9705 4.5,37.5 C4.5,39.9855 6.5145,42 9,42 L10.377,42 C9.9525,41.9925 9.525,42.1245 9.201,42.4485 L3.4485,48.201 C2.8125,48.837 2.8125,49.866 3.4485,50.502 C4.083,51.1365 5.1135,51.1365 5.748,50.502 L10.5,45.75 L15.252,50.502 C15.5955,50.8455 16.0515,50.9955 16.5,50.97 C16.9485,50.997 17.406,50.8455 17.748,50.502 L22.5,45.75 L27.252,50.502 C27.5955,50.8455 28.0515,50.9955 28.5,50.97 C28.9485,50.997 29.406,50.8455 29.748,50.502 L34.5,45.75 L39.252,50.502 C39.5955,50.8455 40.0515,50.9955 40.5,50.97 C40.9485,50.997 41.406,50.8455 41.748,50.502 L46.5,45.75 L51.252,50.502 C51.5955,50.8455 52.0515,50.9955 52.5,50.97 C52.9485,50.997 53.406,50.8455 53.748,50.502 L58.5,45.75 L63.252,50.502 C63.5955,50.8455 64.0515,50.9955 64.5,50.97 C64.9485,50.997 65.406,50.8455 65.748,50.502 L70.5,45.75 L75.252,50.502 C75.5955,50.8455 76.0515,50.9955 76.5,50.97 C76.9485,50.997 77.406,50.8455 77.748,50.502 L82.5,45.75 L87.252,50.502 C87.5955,50.8455 88.0515,50.9955 88.5,50.97 C88.9485,50.997 89.406,50.8455 89.748,50.502 L95.502,44.748 C96.1365,44.1135 96.1365,43.083 95.502,42.4485 C94.866,41.8125 93.837,41.8125 93.201,42.4485 L88.5,47.148 L83.799,42.4485 C83.475,42.1245 83.0475,41.9925 82.623,42 L90,42 C92.4855,42 94.5,39.9855 94.5,37.5 C94.5,36.9705 94.392,36.471 94.224,36 L94.5,36 C96.156,36 97.5,34.656 97.5,33 C90.0705,14.0265 71.106,0 49.5,0 L49.5,0 Z M21.201,42.4485 L16.5,47.148 L11.799,42.4485 C11.475,42.1245 11.0475,41.9925 10.623,42 L22.377,42 C21.9525,41.9925 21.525,42.1245 21.201,42.4485 L21.201,42.4485 Z M33.201,42.4485 L28.5,47.148 L23.799,42.4485 C23.475,42.1245 23.0475,41.9925 22.623,42 L34.377,42 C33.9525,41.9925 33.525,42.1245 33.201,42.4485 L33.201,42.4485 Z M45.201,42.4485 L40.5,47.148 L35.799,42.4485 C35.475,42.1245 35.0475,41.9925 34.623,42 L46.377,42 C45.9525,41.9925 45.525,42.1245 45.201,42.4485 L45.201,42.4485 Z M57.201,42.4485 L52.5,47.148 L47.799,42.4485 C47.475,42.1245 47.0475,41.9925 46.623,42 L58.377,42 C57.9525,41.9925 57.525,42.1245 57.201,42.4485 L57.201,42.4485 Z M69.201,42.4485 L64.5,47.148 L59.799,42.4485 C59.475,42.1245 59.0475,41.9925 58.623,42 L70.377,42 C69.9525,41.9925 69.525,42.1245 69.201,42.4485 L69.201,42.4485 Z M81.201,42.4485 L76.5,47.148 L71.799,42.4485 C71.475,42.1245 71.0475,41.9925 70.623,42 L82.377,42 C81.9525,41.9925 81.525,42.1245 81.201,42.4485 L81.201,42.4485 Z M90,39 L9,39 C8.1705,39 7.5,38.3295 7.5,37.5 C7.5,36.6705 8.1705,36 9,36 L90,36 C90.8295,36 91.5,36.6705 91.5,37.5 C91.5,38.3295 90.8295,39 90,39 L90,39 Z M90,33 L9,33 L5.0025,33 C12.1245,15.411 29.358,3 49.5,3 C69.642,3 86.8755,15.411 93.9975,33 L90,33 L90,33 Z M94.5,57 L94.224,57 C94.392,56.529 94.5,56.0295 94.5,55.5 C94.5,53.0145 92.4855,51 90,51 L9,51 C6.5145,51 4.5,53.0145 4.5,55.5 C4.5,56.0295 4.608,56.529 4.776,57 L4.5,57 C2.844,57 1.5,58.344 1.5,60 C1.5,73.2555 12.2445,84 25.5,84 L73.5,84 C86.7555,84 97.5,73.2555 97.5,60 C97.5,58.344 96.156,57 94.5,57 L94.5,57 Z M9,54 L90,54 C90.8295,54 91.5,54.6705 91.5,55.5 C91.5,56.3295 90.8295,57 90,57 L9,57 C8.1705,57 7.5,56.3295 7.5,55.5 C7.5,54.6705 8.1705,54 9,54 L9,54 Z M69,67.26 L56.5365,60 L76.5,60 L81.4635,60 L69,67.26 L69,67.26 Z M81,63.735 L81,70.5 C81,71.3295 80.3295,72 79.5,72 C78.6705,72 78,71.3295 78,70.5 L78,65.4825 L81,63.735 L81,63.735 Z M48,64.5 C45.5145,64.5 43.5,66.5145 43.5,69 C43.5,69.828 42.8295,70.5 42,70.5 C41.1705,70.5 40.5,69.828 40.5,69 L40.5,64.608 L48.411,60 L50.5875,60 L55.5,62.8605 L55.5,73.5 C55.5,74.3295 54.8295,75 54,75 C53.1705,75 52.5,74.3295 52.5,73.5 L52.5,69 C52.5,66.5145 50.4855,64.5 48,64.5 L48,64.5 Z M17.5365,60 L25.5,60 L42.4635,60 L30,67.26 L17.5365,60 L17.5365,60 Z M22.5,66.3555 L22.5,70.5 C22.5,71.3295 21.8295,72 21,72 C20.1705,72 19.5,71.3295 19.5,70.5 L19.5,64.608 L22.5,66.3555 L22.5,66.3555 Z M73.5,81 L25.5,81 C13.902,81 4.5,71.598 4.5,60 L9,60 L11.589,60 L16.5,62.8605 L16.5,70.5 C16.5,72.9855 18.5145,75 21,75 C23.4855,75 25.5,72.9855 25.5,70.5 L25.5,68.103 L29.088,70.194 C29.0955,70.1985 29.103,70.2015 29.1105,70.2075 L29.2695,70.3005 C29.2995,70.3185 29.3325,70.317 29.3625,70.332 C29.4855,70.389 29.607,70.4355 29.739,70.4595 C29.8275,70.476 29.9115,70.4775 30,70.4775 C30.0885,70.4775 30.1725,70.476 30.261,70.4595 C30.3945,70.4355 30.516,70.389 30.6375,70.332 C30.6675,70.3155 30.7005,70.317 30.7305,70.3005 L30.8895,70.2075 C30.897,70.2015 30.9045,70.1985 30.912,70.194 L37.5,66.3555 L37.5,69 C37.5,71.4855 39.5145,73.5 42,73.5 C44.4855,73.5 46.5,71.4855 46.5,69 C46.5,68.1705 47.1705,67.5 48,67.5 C48.8295,67.5 49.5,68.1705 49.5,69 L49.5,73.5 C49.5,75.9855 51.5145,78 54,78 C56.4855,78 58.5,75.9855 58.5,73.5 L58.5,64.608 L68.088,70.194 C68.0955,70.1985 68.1045,70.2015 68.112,70.2075 L68.2695,70.3005 C68.2995,70.3185 68.3325,70.317 68.3625,70.332 C68.484,70.389 68.6055,70.4355 68.739,70.4595 C68.8275,70.476 68.9115,70.4775 69,70.4775 C69.0885,70.4775 69.1725,70.476 69.261,70.4595 C69.3945,70.4355 69.516,70.389 69.6375,70.332 C69.669,70.3155 69.702,70.317 69.7305,70.3005 L69.888,70.2075 C69.8955,70.2015 69.9045,70.1985 69.912,70.194 L75,67.23 L75,70.5 C75,72.9855 77.0145,75 79.5,75 C81.9855,75 84,72.9855 84,70.5 L84,61.9875 L87.411,60 L90,60 L94.5,60 C94.5,71.598 85.098,81 73.5,81 L73.5,81 Z M25.5,13.5 C24.6705,13.5 24,14.1705 24,15 C24,15.8295 24.6705,16.5 25.5,16.5 C26.3295,16.5 27,15.8295 27,15 C27,14.1705 26.3295,13.5 25.5,13.5 L25.5,13.5 Z M31.5,16.5 C30.6705,16.5 30,17.1705 30,18 C30,18.8295 30.6705,19.5 31.5,19.5 C32.3295,19.5 33,18.8295 33,18 C33,17.1705 32.3295,16.5 31.5,16.5 L31.5,16.5 Z M37.5,13.5 C36.6705,13.5 36,14.1705 36,15 C36,15.8295 36.6705,16.5 37.5,16.5 C38.3295,16.5 39,15.8295 39,15 C39,14.1705 38.3295,13.5 37.5,13.5 L37.5,13.5 Z M43.5,16.5 C42.6705,16.5 42,17.1705 42,18 C42,18.8295 42.6705,19.5 43.5,19.5 C44.3295,19.5 45,18.8295 45,18 C45,17.1705 44.3295,16.5 43.5,16.5 L43.5,16.5 Z M49.5,13.5 C48.6705,13.5 48,14.1705 48,15 C48,15.8295 48.6705,16.5 49.5,16.5 C50.3295,16.5 51,15.8295 51,15 C51,14.1705 50.3295,13.5 49.5,13.5 L49.5,13.5 Z M55.5,16.5 C54.6705,16.5 54,17.1705 54,18 C54,18.8295 54.6705,19.5 55.5,19.5 C56.3295,19.5 57,18.8295 57,18 C57,17.1705 56.3295,16.5 55.5,16.5 L55.5,16.5 Z M61.5,13.5 C60.6705,13.5 60,14.1705 60,15 C60,15.8295 60.6705,16.5 61.5,16.5 C62.3295,16.5 63,15.8295 63,15 C63,14.1705 62.3295,13.5 61.5,13.5 L61.5,13.5 Z M67.5,16.5 C66.6705,16.5 66,17.1705 66,18 C66,18.8295 66.6705,19.5 67.5,19.5 C68.3295,19.5 69,18.8295 69,18 C69,17.1705 68.3295,16.5 67.5,16.5 L67.5,16.5 Z M31.5,10.5 C30.6705,10.5 30,11.1705 30,12 C30,12.8295 30.6705,13.5 31.5,13.5 C32.3295,13.5 33,12.8295 33,12 C33,11.1705 32.3295,10.5 31.5,10.5 L31.5,10.5 Z M43.5,10.5 C42.6705,10.5 42,11.1705 42,12 C42,12.8295 42.6705,13.5 43.5,13.5 C44.3295,13.5 45,12.8295 45,12 C45,11.1705 44.3295,10.5 43.5,10.5 L43.5,10.5 Z M55.5,10.5 C54.6705,10.5 54,11.1705 54,12 C54,12.8295 54.6705,13.5 55.5,13.5 C56.3295,13.5 57,12.8295 57,12 C57,11.1705 56.3295,10.5 55.5,10.5 L55.5,10.5 Z M67.5,10.5 C66.6705,10.5 66,11.1705 66,12 C66,12.8295 66.6705,13.5 67.5,13.5 C68.3295,13.5 69,12.8295 69,12 C69,11.1705 68.3295,10.5 67.5,10.5 L67.5,10.5 Z M73.5,13.5 C72.6705,13.5 72,14.1705 72,15 C72,15.8295 72.6705,16.5 73.5,16.5 C74.3295,16.5 75,15.8295 75,15 C75,14.1705 74.3295,13.5 73.5,13.5 L73.5,13.5 Z M37.5,7.5 C36.6705,7.5 36,8.1705 36,9 C36,9.8295 36.6705,10.5 37.5,10.5 C38.3295,10.5 39,9.8295 39,9 C39,8.1705 38.3295,7.5 37.5,7.5 L37.5,7.5 Z M49.5,7.5 C48.6705,7.5 48,8.1705 48,9 C48,9.8295 48.6705,10.5 49.5,10.5 C50.3295,10.5 51,9.8295 51,9 C51,8.1705 50.3295,7.5 49.5,7.5 L49.5,7.5 Z M61.5,7.5 C60.6705,7.5 60,8.1705 60,9 C60,9.8295 60.6705,10.5 61.5,10.5 C62.3295,10.5 63,9.8295 63,9 C63,8.1705 62.3295,7.5 61.5,7.5 L61.5,7.5 Z" id="Shape"></path>
            </g>
        </g>
    </g>
</svg>