<?xml version="1.0" encoding="UTF-8" standalone="no"?>
<svg width="95px" height="95px" viewBox="0 0 95 95" version="1.1" xmlns="http://www.w3.org/2000/svg" xmlns:xlink="http://www.w3.org/1999/xlink" xmlns:sketch="http://www.bohemiancoding.com/sketch/ns">
    <!-- Generator: Sketch 3.4 (15575) - http://www.bohemiancoding.com/sketch -->
    <title>ava</title>
    <desc>Created with Sketch.</desc>
    <defs></defs>
    <g id="Page-1" stroke="none" stroke-width="1" fill="none" fill-rule="evenodd" sketch:type="MSPage">
        <g id="Tour" sketch:type="MSLayerGroup" transform="translate(-98.000000, -1296.000000)">
            <g id="calendar" transform="translate(98.000000, 1296.000000)" sketch:type="MSShapeGroup">
                <g id="Rectangle_108" transform="translate(1.484375, 37.109375)" fill="#FFFFFF">
                    <rect id="Rectangle-path" x="0" y="0" width="92.03125" height="56.40625"></rect>
                </g>
                <g id="Rectangle_106" transform="translate(1.484375, 31.171875)" fill="#CB5757">
                    <rect id="Rectangle-path" x="0" y="0" width="92.03125" height="5.9375"></rect>
                </g>
                <g id="Rectangle_107" transform="translate(1.484375, 10.390625)" fill="#F26C6D">
                    <rect id="Rectangle-path" x="0" y="0" width="92.03125" height="20.78125"></rect>
                </g>
                <g id="Ellipse_44" transform="translate(14.843750, 47.500000)" fill="#A7BCD0">
                    <path d="M0,20.78125 L5.9375,20.78125 L5.9375,14.84375 L0,14.84375 L0,20.78125 L0,20.78125 Z M14.84375,20.78125 L20.78125,20.78125 L20.78125,14.84375 L14.84375,14.84375 L14.84375,20.78125 L14.84375,20.78125 Z M29.6875,20.78125 L35.625,20.78125 L35.625,14.84375 L29.6875,14.84375 L29.6875,20.78125 L29.6875,20.78125 Z M44.53125,20.78125 L50.46875,20.78125 L50.46875,14.84375 L44.53125,14.84375 L44.53125,20.78125 L44.53125,20.78125 Z M59.375,20.78125 L65.3125,20.78125 L65.3125,14.84375 L59.375,14.84375 L59.375,20.78125 L59.375,20.78125 Z M29.6875,5.9375 L35.625,5.9375 L35.625,0 L29.6875,0 L29.6875,5.9375 L29.6875,5.9375 Z M44.53125,5.9375 L50.46875,5.9375 L50.46875,0 L44.53125,0 L44.53125,5.9375 L44.53125,5.9375 Z M59.375,0 L59.375,5.9375 L65.3125,5.9375 L65.3125,0 L59.375,0 L59.375,0 Z M0,35.625 L5.9375,35.625 L5.9375,29.6875 L0,29.6875 L0,35.625 L0,35.625 Z M14.84375,35.625 L20.78125,35.625 L20.78125,29.6875 L14.84375,29.6875 L14.84375,35.625 L14.84375,35.625 Z M29.6875,35.625 L35.625,35.625 L35.625,29.6875 L29.6875,29.6875 L29.6875,35.625 L29.6875,35.625 Z M44.53125,35.625 L50.46875,35.625 L50.46875,29.6875 L44.53125,29.6875 L44.53125,35.625 L44.53125,35.625 Z" id="Shape"></path>
                </g>
                <g id="Rounded_Rectangle_12" transform="translate(10.390625, 1.484375)" fill="#CFEDFA">
                    <path d="M14.84375,0 C13.205,0 11.875,1.33 11.875,2.96875 L11.875,14.84375 C11.875,16.4825 13.205,17.8125 14.84375,17.8125 C16.4825,17.8125 17.8125,16.4825 17.8125,14.84375 L17.8125,2.96875 C17.8125,1.33 16.4825,0 14.84375,0 L14.84375,0 Z M59.375,0 C57.73625,0 56.40625,1.33 56.40625,2.96875 L56.40625,14.84375 C56.40625,16.4825 57.73625,17.8125 59.375,17.8125 C61.01375,17.8125 62.34375,16.4825 62.34375,14.84375 L62.34375,2.96875 C62.34375,1.33 61.01375,0 59.375,0 L59.375,0 Z M71.25,0 C69.61125,0 68.28125,1.33 68.28125,2.96875 L68.28125,14.84375 C68.28125,16.4825 69.61125,17.8125 71.25,17.8125 C72.88875,17.8125 74.21875,16.4825 74.21875,14.84375 L74.21875,2.96875 C74.21875,1.33 72.88875,0 71.25,0 L71.25,0 Z M2.96875,0 C1.33,0 0,1.33 0,2.96875 L0,14.84375 C0,16.4825 1.33,17.8125 2.96875,17.8125 C4.6075,17.8125 5.9375,16.4825 5.9375,14.84375 L5.9375,2.96875 C5.9375,1.33 4.6075,0 2.96875,0 L2.96875,0 Z" id="Shape"></path>
                </g>
                <g id="Rounded_Rectangle_11" fill="#2B3139">
                    <path d="M46.015625,69.765625 L48.984375,69.765625 C50.623125,69.765625 51.953125,68.435625 51.953125,66.796875 L51.953125,63.828125 C51.953125,62.189375 50.623125,60.859375 48.984375,60.859375 L46.015625,60.859375 C44.376875,60.859375 43.046875,62.189375 43.046875,63.828125 L43.046875,66.796875 C43.046875,68.435625 44.376875,69.765625 46.015625,69.765625 L46.015625,69.765625 Z M46.015625,63.828125 L48.984375,63.828125 L48.984375,66.796875 L46.015625,66.796875 L46.015625,63.828125 L46.015625,63.828125 Z M31.171875,84.609375 L34.140625,84.609375 C35.779375,84.609375 37.109375,83.279375 37.109375,81.640625 L37.109375,78.671875 C37.109375,77.033125 35.779375,75.703125 34.140625,75.703125 L31.171875,75.703125 C29.533125,75.703125 28.203125,77.033125 28.203125,78.671875 L28.203125,81.640625 C28.203125,83.279375 29.533125,84.609375 31.171875,84.609375 L31.171875,84.609375 Z M31.171875,78.671875 L34.140625,78.671875 L34.140625,81.640625 L31.171875,81.640625 L31.171875,78.671875 L31.171875,78.671875 Z M75.703125,54.921875 L78.671875,54.921875 C80.310625,54.921875 81.640625,53.591875 81.640625,51.953125 L81.640625,48.984375 C81.640625,47.345625 80.310625,46.015625 78.671875,46.015625 L75.703125,46.015625 C74.064375,46.015625 72.734375,47.345625 72.734375,48.984375 L72.734375,51.953125 C72.734375,53.591875 74.064375,54.921875 75.703125,54.921875 L75.703125,54.921875 Z M75.703125,48.984375 L78.671875,48.984375 L78.671875,51.953125 L75.703125,51.953125 L75.703125,48.984375 L75.703125,48.984375 Z M46.015625,84.609375 L48.984375,84.609375 C50.623125,84.609375 51.953125,83.279375 51.953125,81.640625 L51.953125,78.671875 C51.953125,77.033125 50.623125,75.703125 48.984375,75.703125 L46.015625,75.703125 C44.376875,75.703125 43.046875,77.033125 43.046875,78.671875 L43.046875,81.640625 C43.046875,83.279375 44.376875,84.609375 46.015625,84.609375 L46.015625,84.609375 Z M46.015625,78.671875 L48.984375,78.671875 L48.984375,81.640625 L46.015625,81.640625 L46.015625,78.671875 L46.015625,78.671875 Z M31.171875,69.765625 L34.140625,69.765625 C35.779375,69.765625 37.109375,68.435625 37.109375,66.796875 L37.109375,63.828125 C37.109375,62.189375 35.779375,60.859375 34.140625,60.859375 L31.171875,60.859375 C29.533125,60.859375 28.203125,62.189375 28.203125,63.828125 L28.203125,66.796875 C28.203125,68.435625 29.533125,69.765625 31.171875,69.765625 L31.171875,69.765625 Z M31.171875,63.828125 L34.140625,63.828125 L34.140625,66.796875 L31.171875,66.796875 L31.171875,63.828125 L31.171875,63.828125 Z M92.03125,8.90625 L86.09375,8.90625 L86.09375,4.453125 C86.09375,1.99351562 84.1002344,0 81.640625,0 C79.1810156,0 77.1875,1.99351562 77.1875,4.453125 L77.1875,8.90625 L74.21875,8.90625 L74.21875,4.453125 C74.21875,1.99351562 72.2252344,0 69.765625,0 C67.3060156,0 65.3125,1.99351562 65.3125,4.453125 L65.3125,8.90625 L29.6875,8.90625 L29.6875,4.453125 C29.6875,1.99351562 27.6939844,0 25.234375,0 C22.7747656,0 20.78125,1.99351562 20.78125,4.453125 L20.78125,8.90625 L17.8125,8.90625 L17.8125,4.453125 C17.8125,1.99351562 15.8189844,0 13.359375,0 C10.8997656,0 8.90625,1.99351562 8.90625,4.453125 L8.90625,8.90625 L2.96875,8.90625 C1.33,8.90625 0,10.23625 0,11.875 L0,92.03125 C0,93.67 1.33,95 2.96875,95 L92.03125,95 C93.67,95 95,93.67 95,92.03125 L95,11.875 C95,10.23625 93.67,8.90625 92.03125,8.90625 L92.03125,8.90625 Z M80.15625,4.453125 C80.15625,3.63226563 80.8197656,2.96875 81.640625,2.96875 C82.46,2.96875 83.125,3.63226563 83.125,4.453125 L83.125,16.328125 C83.125,17.1475 82.46,17.8125 81.640625,17.8125 C80.8197656,17.8125 80.15625,17.1475 80.15625,16.328125 L80.15625,4.453125 L80.15625,4.453125 Z M68.28125,4.453125 C68.28125,3.63226563 68.9447656,2.96875 69.765625,2.96875 C70.585,2.96875 71.25,3.63226563 71.25,4.453125 L71.25,16.328125 C71.25,17.1475 70.585,17.8125 69.765625,17.8125 C68.9447656,17.8125 68.28125,17.1475 68.28125,16.328125 L68.28125,4.453125 L68.28125,4.453125 Z M23.75,4.453125 C23.75,3.63226563 24.4135156,2.96875 25.234375,2.96875 C26.05375,2.96875 26.71875,3.63226563 26.71875,4.453125 L26.71875,16.328125 C26.71875,17.1475 26.05375,17.8125 25.234375,17.8125 C24.4135156,17.8125 23.75,17.1475 23.75,16.328125 L23.75,4.453125 L23.75,4.453125 Z M11.875,4.453125 C11.875,3.63226563 12.5385156,2.96875 13.359375,2.96875 C14.17875,2.96875 14.84375,3.63226563 14.84375,4.453125 L14.84375,16.328125 C14.84375,17.1475 14.17875,17.8125 13.359375,17.8125 C12.5385156,17.8125 11.875,17.1475 11.875,16.328125 L11.875,4.453125 L11.875,4.453125 Z M92.03125,92.03125 L2.96875,92.03125 L2.96875,38.59375 L92.03125,38.59375 L92.03125,92.03125 L92.03125,92.03125 Z M92.03125,35.625 L2.96875,35.625 L2.96875,32.65625 L92.03125,32.65625 L92.03125,35.625 L92.03125,35.625 Z M92.03125,23.75 L72.734375,23.75 C71.9135156,23.75 71.25,24.4135156 71.25,25.234375 C71.25,26.0552344 71.9135156,26.71875 72.734375,26.71875 L92.03125,26.71875 L92.03125,29.6875 L2.96875,29.6875 L2.96875,26.71875 L22.265625,26.71875 C23.085,26.71875 23.75,26.0552344 23.75,25.234375 C23.75,24.4135156 23.085,23.75 22.265625,23.75 L2.96875,23.75 L2.96875,11.875 L8.90625,11.875 L8.90625,16.328125 C8.90625,18.7877344 10.8997656,20.78125 13.359375,20.78125 C15.8189844,20.78125 17.8125,18.7877344 17.8125,16.328125 L17.8125,11.875 L20.78125,11.875 L20.78125,16.328125 C20.78125,18.7877344 22.7747656,20.78125 25.234375,20.78125 C27.6939844,20.78125 29.6875,18.7877344 29.6875,16.328125 L29.6875,11.875 L65.3125,11.875 L65.3125,16.328125 C65.3125,18.7877344 67.3060156,20.78125 69.765625,20.78125 C72.2252344,20.78125 74.21875,18.7877344 74.21875,16.328125 L74.21875,11.875 L77.1875,11.875 L77.1875,16.328125 C77.1875,18.7877344 79.1810156,20.78125 81.640625,20.78125 C84.1002344,20.78125 86.09375,18.7877344 86.09375,16.328125 L86.09375,11.875 L92.03125,11.875 L92.03125,23.75 L92.03125,23.75 Z M16.328125,69.765625 L19.296875,69.765625 C20.935625,69.765625 22.265625,68.435625 22.265625,66.796875 L22.265625,63.828125 C22.265625,62.189375 20.935625,60.859375 19.296875,60.859375 L16.328125,60.859375 C14.689375,60.859375 13.359375,62.189375 13.359375,63.828125 L13.359375,66.796875 C13.359375,68.435625 14.689375,69.765625 16.328125,69.765625 L16.328125,69.765625 Z M16.328125,63.828125 L19.296875,63.828125 L19.296875,66.796875 L16.328125,66.796875 L16.328125,63.828125 L16.328125,63.828125 Z M60.859375,69.765625 L63.828125,69.765625 C65.466875,69.765625 66.796875,68.435625 66.796875,66.796875 L66.796875,63.828125 C66.796875,62.189375 65.466875,60.859375 63.828125,60.859375 L60.859375,60.859375 C59.220625,60.859375 57.890625,62.189375 57.890625,63.828125 L57.890625,66.796875 C57.890625,68.435625 59.220625,69.765625 60.859375,69.765625 L60.859375,69.765625 Z M60.859375,63.828125 L63.828125,63.828125 L63.828125,66.796875 L60.859375,66.796875 L60.859375,63.828125 L60.859375,63.828125 Z M60.859375,84.609375 L63.828125,84.609375 C65.466875,84.609375 66.796875,83.279375 66.796875,81.640625 L66.796875,78.671875 C66.796875,77.033125 65.466875,75.703125 63.828125,75.703125 L60.859375,75.703125 C59.220625,75.703125 57.890625,77.033125 57.890625,78.671875 L57.890625,81.640625 C57.890625,83.279375 59.220625,84.609375 60.859375,84.609375 L60.859375,84.609375 Z M60.859375,78.671875 L63.828125,78.671875 L63.828125,81.640625 L60.859375,81.640625 L60.859375,78.671875 L60.859375,78.671875 Z M46.015625,54.921875 L48.984375,54.921875 C50.623125,54.921875 51.953125,53.591875 51.953125,51.953125 L51.953125,48.984375 C51.953125,47.345625 50.623125,46.015625 48.984375,46.015625 L46.015625,46.015625 C44.376875,46.015625 43.046875,47.345625 43.046875,48.984375 L43.046875,51.953125 C43.046875,53.591875 44.376875,54.921875 46.015625,54.921875 L46.015625,54.921875 Z M46.015625,48.984375 L48.984375,48.984375 L48.984375,51.953125 L46.015625,51.953125 L46.015625,48.984375 L46.015625,48.984375 Z M75.703125,69.765625 L78.671875,69.765625 C80.310625,69.765625 81.640625,68.435625 81.640625,66.796875 L81.640625,63.828125 C81.640625,62.189375 80.310625,60.859375 78.671875,60.859375 L75.703125,60.859375 C74.064375,60.859375 72.734375,62.189375 72.734375,63.828125 L72.734375,66.796875 C72.734375,68.435625 74.064375,69.765625 75.703125,69.765625 L75.703125,69.765625 Z M75.703125,63.828125 L78.671875,63.828125 L78.671875,66.796875 L75.703125,66.796875 L75.703125,63.828125 L75.703125,63.828125 Z M16.328125,84.609375 L19.296875,84.609375 C20.935625,84.609375 22.265625,83.279375 22.265625,81.640625 L22.265625,78.671875 C22.265625,77.033125 20.935625,75.703125 19.296875,75.703125 L16.328125,75.703125 C14.689375,75.703125 13.359375,77.033125 13.359375,78.671875 L13.359375,81.640625 C13.359375,83.279375 14.689375,84.609375 16.328125,84.609375 L16.328125,84.609375 Z M16.328125,78.671875 L19.296875,78.671875 L19.296875,81.640625 L16.328125,81.640625 L16.328125,78.671875 L16.328125,78.671875 Z M60.859375,54.921875 L63.828125,54.921875 C65.466875,54.921875 66.796875,53.591875 66.796875,51.953125 L66.796875,48.984375 C66.796875,47.345625 65.466875,46.015625 63.828125,46.015625 L60.859375,46.015625 C59.220625,46.015625 57.890625,47.345625 57.890625,48.984375 L57.890625,51.953125 C57.890625,53.591875 59.220625,54.921875 60.859375,54.921875 L60.859375,54.921875 Z M60.859375,48.984375 L63.828125,48.984375 L63.828125,51.953125 L60.859375,51.953125 L60.859375,48.984375 L60.859375,48.984375 Z M57.890625,23.75 L37.109375,23.75 C36.2885156,23.75 35.625,24.4135156 35.625,25.234375 C35.625,26.0552344 36.2885156,26.71875 37.109375,26.71875 L57.890625,26.71875 C58.71,26.71875 59.375,26.0552344 59.375,25.234375 C59.375,24.4135156 58.71,23.75 57.890625,23.75 L57.890625,23.75 Z" id="Shape"></path>
                </g>
            </g>
        </g>
    </g>
</svg>