<?xml version="1.0" encoding="UTF-8" standalone="no"?>
<svg width="69px" height="96px" viewBox="0 0 69 96" version="1.1" xmlns="http://www.w3.org/2000/svg" xmlns:xlink="http://www.w3.org/1999/xlink" xmlns:sketch="http://www.bohemiancoding.com/sketch/ns">
    <!-- Generator: Sketch 3.4 (15575) - http://www.bohemiancoding.com/sketch -->
    <title>ava</title>
    <desc>Created with Sketch.</desc>
    <defs></defs>
    <g id="Page-1" stroke="none" stroke-width="1" fill="none" fill-rule="evenodd" sketch:type="MSPage">
        <g id="Tour" sketch:type="MSLayerGroup" transform="translate(-112.000000, -971.000000)">
            <g id="speaker-2" transform="translate(112.000000, 971.000000)" sketch:type="MSShapeGroup">
                <g id="Rectangle_62" transform="translate(1.500000, 1.500000)" fill="#E1C5AD">
                    <rect id="Rectangle-path" x="0" y="0" width="66" height="93"></rect>
                </g>
                <g id="Ellipse_27" transform="translate(15.000000, 43.500000)" fill="#C8CFE1">
                    <ellipse id="Oval" cx="19.5" cy="19.5" rx="19.5" ry="19.5"></ellipse>
                </g>
                <g id="Ellipse_28" transform="translate(21.000000, 13.500000)" fill="#7C8697">
                    <path d="M13.5,36 C6.0435,36 0,42.0435 0,49.5 C0,56.9565 6.0435,63 13.5,63 C20.9565,63 27,56.9565 27,49.5 C27,42.0435 20.9565,36 13.5,36 L13.5,36 Z M13.5,21 C19.299,21 24,16.299 24,10.5 C24,4.701 19.299,0 13.5,0 C7.701,0 3,4.701 3,10.5 C3,16.299 7.701,21 13.5,21 L13.5,21 Z" id="Shape"></path>
                </g>
                <g id="Rectangle_64" transform="translate(1.500000, 1.500000)" fill="#BC9E85">
                    <path d="M0,0 L0,93 L66,93 L66,0 L0,0 L0,0 Z M60,87 L6,87 L6,6 L60,6 L60,87 L60,87 Z" id="Shape"></path>
                </g>
                <g id="Rounded_Rectangle_11" fill="#2B3139">
                    <path d="M34.5,36 C41.127,36 46.5,30.627 46.5,24 C46.5,17.373 41.127,12 34.5,12 C27.873,12 22.5,17.373 22.5,24 C22.5,30.627 27.873,36 34.5,36 L34.5,36 Z M34.5,15 C39.4695,15 43.5,19.0305 43.5,24 C43.5,28.9695 39.4695,33 34.5,33 C29.5305,33 25.5,28.9695 25.5,24 C25.5,19.0305 29.5305,15 34.5,15 L34.5,15 Z M34.5,60 C32.844,60 31.5,61.344 31.5,63 C31.5,64.656 32.844,66 34.5,66 C36.156,66 37.5,64.656 37.5,63 C37.5,61.344 36.156,60 34.5,60 L34.5,60 Z M13.5,81 C12.6705,81 12,81.6705 12,82.5 C12,83.3295 12.6705,84 13.5,84 C14.328,84 15,83.3295 15,82.5 C15,81.6705 14.328,81 13.5,81 L13.5,81 Z M34.5,27.012 C36.1635,27.012 37.512,25.665 37.512,24 C37.512,22.335 36.1635,20.988 34.5,20.988 C32.8365,20.988 31.488,22.3365 31.488,24 C31.488,25.6635 32.8365,27.012 34.5,27.012 L34.5,27.012 Z M7.5,90 L61.5,90 C62.3295,90 63,89.3295 63,88.5 L63,7.5 C63,6.6705 62.3295,6 61.5,6 L7.5,6 C6.6705,6 6,6.6705 6,7.5 L6,88.5 C6,89.3295 6.6705,90 7.5,90 L7.5,90 Z M9,9 L60,9 L60,87 L9,87 L9,9 L9,9 Z M13.5,15 C14.328,15 15,14.3295 15,13.5 C15,12.6705 14.328,12 13.5,12 C12.6705,12 12,12.6705 12,13.5 C12,14.3295 12.6705,15 13.5,15 L13.5,15 Z M66,0 L3,0 C1.344,0 0,1.344 0,3 L0,93 C0,94.656 1.344,96 3,96 L66,96 C67.656,96 69,94.656 69,93 L69,3 C69,1.344 67.656,0 66,0 L66,0 Z M66,93 L3,93 L3,3 L66,3 L66,93 L66,93 Z M34.5,42 C22.902,42 13.5,51.402 13.5,63 C13.5,74.598 22.902,84 34.5,84 C46.098,84 55.5,74.598 55.5,63 C55.5,51.402 46.098,42 34.5,42 L34.5,42 Z M34.5,81 C24.558,81 16.5,72.9405 16.5,63 C16.5,53.0595 24.558,45 34.5,45 C44.4405,45 52.5,53.0595 52.5,63 C52.5,72.9405 44.4405,81 34.5,81 L34.5,81 Z M55.5,12 C54.6705,12 54,12.6705 54,13.5 C54,14.3295 54.6705,15 55.5,15 C56.3295,15 57,14.3295 57,13.5 C57,12.6705 56.3295,12 55.5,12 L55.5,12 Z M34.5,48 C26.217,48 19.5,54.717 19.5,63 C19.5,71.283 26.217,78 34.5,78 C42.783,78 49.5,71.283 49.5,63 C49.5,54.717 42.783,48 34.5,48 L34.5,48 Z M34.5,75 C27.873,75 22.5,69.627 22.5,63 C22.5,56.373 27.873,51 34.5,51 C41.127,51 46.5,56.373 46.5,63 C46.5,69.627 41.127,75 34.5,75 L34.5,75 Z M55.5,81 C54.6705,81 54,81.6705 54,82.5 C54,83.3295 54.6705,84 55.5,84 C56.3295,84 57,83.3295 57,82.5 C57,81.6705 56.3295,81 55.5,81 L55.5,81 Z" id="Shape"></path>
                </g>
            </g>
        </g>
    </g>
</svg>