<?xml version="1.0" encoding="UTF-8" standalone="no"?>
<svg width="129px" height="46px" viewBox="0 0 129 46" version="1.1" xmlns="http://www.w3.org/2000/svg" xmlns:xlink="http://www.w3.org/1999/xlink">
    <!-- Generator: Sketch 3.7.2 (28276) - http://www.bohemiancoding.com/sketch -->
    <title>Group</title>
    <desc>Created with Sketch.</desc>
    <defs></defs>
    <g id="Page-1" stroke="none" stroke-width="1" fill="none" fill-rule="evenodd">
        <g id="Group" fill="#FFFFFF">
            <path d="M34.902,45 L19.656,0.9 L15.498,0.9 L0.315,45 L6.363,45 L8.631,38.259 L26.523,38.259 L28.854,45 L34.902,45 Z M24.759,33.03 L10.395,33.03 L17.64,10.287 L24.759,33.03 Z M45.612,40.023 C47.439,43.488 51.408,45.693 55.566,45.693 C64.386,45.693 70.308,38.763 70.308,30.699 C70.308,22.572 64.386,15.642 55.566,15.642 C51.408,15.642 47.439,17.847 45.612,21.312 L45.612,0.9 L40.131,0.9 L40.131,45 L45.612,45 L45.612,40.023 Z M55.314,40.779 C49.392,40.779 45.612,36.18 45.612,30.699 C45.612,25.218 49.392,20.556 55.314,20.556 C61.047,20.556 64.827,25.218 64.827,30.699 C64.827,36.18 61.047,40.779 55.314,40.779 L55.314,40.779 Z M90.531,45.693 C99.729,45.693 105.651,38.763 105.651,30.699 C105.651,22.572 99.729,15.642 90.531,15.642 C81.459,15.642 75.537,22.572 75.537,30.699 C75.537,38.763 81.459,45.693 90.531,45.693 L90.531,45.693 Z M90.531,40.779 C84.735,40.779 80.955,36.18 80.955,30.699 C80.955,25.218 84.735,20.556 90.531,20.556 C96.453,20.556 100.233,25.218 100.233,30.699 C100.233,36.18 96.453,40.779 90.531,40.779 L90.531,40.779 Z M128.709,40.149 C127.89,40.275 126.126,40.401 124.992,40.401 C122.22,40.401 120.267,39.708 120.267,34.164 L120.267,20.997 L127.701,20.997 L127.701,16.398 L120.267,16.398 L120.267,6.759 L114.786,6.759 L114.786,16.398 L109.494,16.398 L109.494,20.997 L114.786,20.997 L114.786,35.361 C114.786,44.748 120.267,45.378 123.795,45.378 C125.622,45.378 127.638,45.189 128.709,45 L128.709,40.149 Z" id="Abot"></path>
        </g>
    </g>
</svg>