<svg id="Layer_1" data-name="Layer 1" xmlns="http://www.w3.org/2000/svg" viewBox="0 0 56 48"><title>03. Communication</title><path d="M11.6,17.57C12.41,22.08,15.41,25,19.24,25s6.77-2.84,7.64-7.42c0.14-.7.81-4.24,0.85-5.1a7.85,7.85,0,0,0-2.21-5.82,8.77,8.77,0,0,0-12.63.06,7.71,7.71,0,0,0-2.14,5.78C10.8,13.37,11.52,17.15,11.6,17.57Zm2.75-9.48a6.77,6.77,0,0,1,9.73,0,5.87,5.87,0,0,1,1.65,4.35c0,0.55-.51,3.25-0.82,4.81C24.38,20,22.61,23,19.24,23S14,19.88,13.56,17.2c-0.3-1.57-.78-4.27-0.82-4.83A5.73,5.73,0,0,1,14.35,8.09Z"/><path d="M31.46,29.72L19.24,28.08,7.09,29.69c-3,.59-6.27,2.68-6.69,6L0,44H38.77l-0.48-7.91C38.08,32.82,35.54,30.44,31.46,29.72ZM1.85,42l0.53-6.05c0.29-2.33,2.84-3.86,5-4.29L19.23,30.1l11.91,1.59c1.48,0.26,4.94,1.23,5.15,4.52L36.65,42H1.85Z"/><path d="M33.93,21.46c0.67,3.67,3.15,6,6.31,6s5.59-2.31,6.31-6c0.11-.56.65-3.36,0.68-4.06h0a6.37,6.37,0,0,0-1.79-4.72,7.27,7.27,0,0,0-10.45,0,6.26,6.26,0,0,0-1.74,4.69C33.29,18.12,33.82,20.92,33.93,21.46Zm2.52-7.35a5.27,5.27,0,0,1,7.55,0,4.39,4.39,0,0,1,1.24,3.25c0,0.4-.39,2.45-0.65,3.77-0.2,1-1.11,4.41-4.35,4.41-2.61,0-4-2.27-4.34-4.41-0.24-1.23-.62-3.35-0.65-3.78A4.28,4.28,0,0,1,36.44,14.11Z"/><path d="M44,44H56l-0.11-7.52c-0.21-2.71-2.3-4.69-5.66-5.29L40.36,30l-0.24,2,9.82,1.18c1.13,0.2,3.77.94,4,3.44L54.18,42H44v2Z"/></svg>