<?xml version="1.0" encoding="UTF-8" standalone="no"?>
<svg width="180px" height="49px" viewBox="0 0 180 49" version="1.1" xmlns="http://www.w3.org/2000/svg" xmlns:xlink="http://www.w3.org/1999/xlink">
    <g id="Page-1" stroke="none" stroke-width="1" fill="none" fill-rule="evenodd">
        <g id="Group" transform="translate(2.000000, 1.000000)">
            <path d="M23,0 C10.3,0 0,10.3 0,23 C0,27 1,31 3,34.5 L0,45.8 L11.3,42.8 C22.2,49.3 36.3,45.6 42.8,34.7 C49.3,23.8 45.6,9.7 34.7,3.2 C31.1,1.1 27.1,0 23,0 L23,0 Z" id="Shape" stroke="#000000" stroke-width="2"></path>
            <path d="M33,23 C33,28.5 28.5,33 23,33 C17.5,33 13,28.5 13,23" id="Shape" stroke="#000000" stroke-width="2"></path>
            <path d="M79.208,34.345 L60.371,34.345 L69.821,6.058 L79.208,34.345 Z M86.075,46 L70.955,1.9 L68.687,1.9 L53.504,46 L56.402,46 L59.489,36.928 L80.09,36.928 L83.177,46 L86.075,46 Z M94.832,39.133 C96.659,43.543 101.006,46.63 106.613,46.63 C115.118,46.63 120.662,40.078 120.662,32.455 C120.662,24.769 115.118,18.217 106.613,18.217 C101.006,18.217 96.659,21.304 94.832,25.777 L94.832,1.9 L92.186,1.9 L92.186,46 L94.832,46 L94.832,39.133 Z M106.55,44.11 C99.368,44.11 94.832,38.755 94.832,32.455 C94.832,26.092 99.368,20.737 106.55,20.737 C113.48,20.737 118.016,26.092 118.016,32.455 C118.016,38.755 113.48,44.11 106.55,44.11 L106.55,44.11 Z M140.57,46.63 C149.327,46.63 154.934,40.078 154.934,32.455 C154.934,24.769 149.327,18.217 140.57,18.217 C132.002,18.217 126.395,24.769 126.395,32.455 C126.395,40.078 132.002,46.63 140.57,46.63 L140.57,46.63 Z M140.57,44.11 C133.64,44.11 129.104,38.755 129.104,32.455 C129.104,26.092 133.64,20.737 140.57,20.737 C147.689,20.737 152.225,26.092 152.225,32.455 C152.225,38.755 147.689,44.11 140.57,44.11 L140.57,44.11 Z M177.425,43.543 C176.354,43.732 174.464,43.858 173.33,43.858 C170.306,43.858 167.66,43.039 167.66,36.613 L167.66,21.241 L176.417,21.241 L176.417,18.847 L167.66,18.847 L167.66,7.759 L165.014,7.759 L165.014,18.847 L159.029,18.847 L159.029,21.241 L165.014,21.241 L165.014,36.991 C165.014,45.496 169.109,46.378 172.889,46.378 C174.464,46.378 176.354,46.189 177.425,46 L177.425,43.543 Z" id="Abot" fill="#000000"></path>
        </g>
    </g>
</svg>
