<svg id="Layer_1" data-name="Layer 1" xmlns="http://www.w3.org/2000/svg" viewBox="0 0 48 48"><title>01. General</title><path d="M24,16a8,8,0,1,0,8,8A8,8,0,0,0,24,16Zm0,14a6,6,0,1,1,6-6A6,6,0,0,1,24,30Z"/><path d="M43.08,28.59L48,28.23V19.52l-4.92-.36a3.32,3.32,0,0,1-2.26-5.44L44,10,37.89,3.83,34.16,7.05a3.27,3.27,0,0,1-3.44.52,3.15,3.15,0,0,1-2-2.71L28.35,0H19.64L19.28,5.1C19.2,6.25,18.51,7,17.46,8h0l-0.21-.15a3.28,3.28,0,0,1-3.38-.67L10.11,3.89,3.95,10l3.23,3.73a3.3,3.3,0,0,1-2.25,5.42L0,19.52v8.71l4.92,0.36A3.31,3.31,0,0,1,7.17,34L3.95,37.77l6.16,6.16,3.74-3.23a3.27,3.27,0,0,1,3.43-.52,3.33,3.33,0,0,1,2,2.83l0.36,5h8.71l0.36-5a3.3,3.3,0,0,1,2-2.8l0.18-.09a3.24,3.24,0,0,1,3.26.58l3.74,3.22,6.16-6.16L40.83,34a3.27,3.27,0,0,1-.52-3.44A3.24,3.24,0,0,1,43.08,28.59Zm-3.77,6.75,2,2.33-3.53,3.53-2.33-2A5.23,5.23,0,0,0,30,38.33l-0.2.1a5.32,5.32,0,0,0-3.1,4.45L26.49,46h-5l-0.23-3.13A5.36,5.36,0,0,0,18,38.32a5.23,5.23,0,0,0-5.45.87l-2.33,2L6.67,37.67l2-2.33A5.31,5.31,0,0,0,5.07,26.6L2,26.37v-5l3.07-.23a5.31,5.31,0,0,0,3.62-8.74l-2-2.33L10.2,6.56l2.33,2a5.23,5.23,0,0,0,5.25,1h0L18,9.45A5.2,5.2,0,0,0,21.28,5L21.5,2h5l0.23,3a5.32,5.32,0,0,0,8.74,3.56l2.33-2,3.53,3.53-2,2.33a5.32,5.32,0,0,0,3.62,8.74L46,21.38v5l-3.07.23A5.32,5.32,0,0,0,39.31,35.35Z"/></svg>