<?xml version="1.0" encoding="UTF-8" standalone="no"?>
<svg width="68px" height="95px" viewBox="0 0 68 95" version="1.1" xmlns="http://www.w3.org/2000/svg" xmlns:xlink="http://www.w3.org/1999/xlink" xmlns:sketch="http://www.bohemiancoding.com/sketch/ns">
    <!-- Generator: Sketch 3.4 (15575) - http://www.bohemiancoding.com/sketch -->
    <title>ava</title>
    <desc>Created with Sketch.</desc>
    <defs></defs>
    <g id="Page-1" stroke="none" stroke-width="1" fill="none" fill-rule="evenodd" sketch:type="MSPage">
        <g id="Tour" sketch:type="MSLayerGroup" transform="translate(-112.000000, -806.000000)">
            <g id="medical-results" transform="translate(112.000000, 806.000000)" sketch:type="MSShapeGroup">
                <g id="Rectangle_23" transform="translate(1.478261, 16.328125)" fill="#BC9889">
                    <rect id="Rectangle-path" x="0" y="0" width="65.0434783" height="77.1875"></rect>
                </g>
                <g id="Rectangle_25" transform="translate(7.391304, 22.265625)" fill="#FFFFFF">
                    <rect id="Rectangle-path" x="0" y="0" width="53.2173913" height="65.3125"></rect>
                </g>
                <g id="Rectangle_24" transform="translate(14.782609, 13.359375)" fill="#BBD5EF">
                    <rect id="Rectangle-path" x="0" y="0" width="38.4347826" height="14.84375"></rect>
                </g>
                <g id="Rectangle_98" transform="translate(25.130435, 34.140625)" fill="#F16465">
                    <path d="M17.7391304,5.9375 L11.826087,5.9375 L11.826087,0 L5.91304348,0 L5.91304348,5.9375 L0,5.9375 L0,11.875 L5.91304348,11.875 L5.91304348,17.8125 L11.826087,17.8125 L11.826087,11.875 L17.7391304,11.875 L17.7391304,5.9375 Z" id="Shape"></path>
                </g>
                <g id="Rectangle_22" fill="#2B3139">
                    <path d="M65.0434783,14.84375 L54.6956522,14.84375 C54.6956522,13.205 53.3711304,11.875 51.7391304,11.875 L39.8805217,11.875 C40.8147826,10.6310937 41.3913043,9.10070313 41.3913043,7.421875 C41.3913043,3.32203125 38.0829565,0 34,0 C29.9170435,0 26.6086957,3.32203125 26.6086957,7.421875 C26.6086957,9.10070313 27.1852174,10.6310937 28.1194783,11.875 L16.2608696,11.875 C14.6288696,11.875 13.3043478,13.205 13.3043478,14.84375 L2.95652174,14.84375 C1.32452174,14.84375 0,16.17375 0,17.8125 L0,92.03125 C0,93.67 1.32452174,95 2.95652174,95 L65.0434783,95 C66.6754783,95 68,93.67 68,92.03125 L68,17.8125 C68,16.17375 66.6754783,14.84375 65.0434783,14.84375 L65.0434783,14.84375 Z M34,2.96875 C36.4494783,2.96875 38.4347826,4.96226562 38.4347826,7.421875 C38.4347826,9.88148437 36.4494783,11.875 34,11.875 C31.5505217,11.875 29.5652174,9.88148437 29.5652174,7.421875 C29.5652174,4.96226562 31.5505217,2.96875 34,2.96875 L34,2.96875 Z M16.2608696,23.75 L16.2608696,20.78125 L16.2608696,14.84375 L51.7391304,14.84375 L51.7391304,20.78125 L51.7391304,23.75 L51.7391304,26.71875 L16.2608696,26.71875 L16.2608696,23.75 L16.2608696,23.75 Z M16.2608696,29.6875 L51.7391304,29.6875 C53.3711304,29.6875 54.6956522,28.3575 54.6956522,26.71875 L54.6956522,23.75 L59.1304348,23.75 L59.1304348,86.09375 L8.86956522,86.09375 L8.86956522,23.75 L13.3043478,23.75 L13.3043478,26.71875 C13.3043478,28.3575 14.6288696,29.6875 16.2608696,29.6875 L16.2608696,29.6875 Z M65.0434783,92.03125 L2.95652174,92.03125 L2.95652174,17.8125 L13.3043478,17.8125 L13.3043478,20.78125 L5.91304348,20.78125 L5.91304348,89.0625 L62.0869565,89.0625 L62.0869565,20.78125 L54.6956522,20.78125 L54.6956522,17.8125 L65.0434783,17.8125 L65.0434783,92.03125 L65.0434783,92.03125 Z M18.0850435,79.716875 C18.6852174,80.3180469 19.6564348,80.3180469 20.258087,79.716875 C20.3231304,79.6500781 20.3541739,79.5669531 20.405913,79.4942188 L26.1873913,73.6888281 C26.7417391,73.1321875 26.7417391,72.2296875 26.1873913,71.6745313 C25.6330435,71.1178906 24.7357391,71.1178906 24.1813913,71.6745313 L19.3016522,76.5744531 L17.3932174,74.6596094 C16.7930435,74.0584375 15.8218261,74.0584375 15.2201739,74.6596094 C14.6214783,75.2622656 14.6214783,76.2375 15.2201739,76.8416406 L18.0850435,79.716875 L18.0850435,79.716875 Z M31.0434783,63.828125 C31.0434783,64.6475 31.7042609,65.3125 32.5217391,65.3125 L51.7391304,65.3125 C52.5551304,65.3125 53.2173913,64.6475 53.2173913,63.828125 C53.2173913,63.0072656 52.5551304,62.34375 51.7391304,62.34375 L32.5217391,62.34375 C31.7042609,62.34375 31.0434783,63.0072656 31.0434783,63.828125 L31.0434783,63.828125 Z M18.0850435,67.841875 C18.6852174,68.4430469 19.6564348,68.4430469 20.258087,67.841875 C20.3231304,67.7750781 20.3541739,67.6919531 20.405913,67.6192188 L26.1873913,61.8138281 C26.7417391,61.2571875 26.7417391,60.3546875 26.1873913,59.7980469 C25.6330435,59.2428906 24.7357391,59.2428906 24.1813913,59.7980469 L19.3016522,64.6994531 L17.3932174,62.7846094 C16.7930435,62.1834375 15.8218261,62.1834375 15.2201739,62.7846094 C14.6214783,63.3872656 14.6214783,64.3625 15.2201739,64.9666406 L18.0850435,67.841875 L18.0850435,67.841875 Z M26.6086957,47.5 L29.5652174,47.5 L29.5652174,50.46875 C29.5652174,52.1075 30.8897391,53.4375 32.5217391,53.4375 L35.4782609,53.4375 C37.1102609,53.4375 38.4347826,52.1075 38.4347826,50.46875 L38.4347826,47.5 L41.3913043,47.5 C43.0233043,47.5 44.3478261,46.17 44.3478261,44.53125 L44.3478261,41.5625 C44.3478261,39.92375 43.0233043,38.59375 41.3913043,38.59375 L38.4347826,38.59375 L38.4347826,35.625 C38.4347826,33.98625 37.1102609,32.65625 35.4782609,32.65625 L32.5217391,32.65625 C30.8897391,32.65625 29.5652174,33.98625 29.5652174,35.625 L29.5652174,38.59375 L26.6086957,38.59375 C24.9766957,38.59375 23.6521739,39.92375 23.6521739,41.5625 L23.6521739,44.53125 C23.6521739,46.17 24.9766957,47.5 26.6086957,47.5 L26.6086957,47.5 Z M26.6086957,41.5625 L32.5217391,41.5625 L32.5217391,35.625 L35.4782609,35.625 L35.4782609,41.5625 L41.3913043,41.5625 L41.3913043,44.53125 L35.4782609,44.53125 L35.4782609,50.46875 L32.5217391,50.46875 L32.5217391,44.53125 L26.6086957,44.53125 L26.6086957,41.5625 L26.6086957,41.5625 Z M51.7391304,74.21875 L32.5217391,74.21875 C31.7042609,74.21875 31.0434783,74.8822656 31.0434783,75.703125 C31.0434783,76.5239844 31.7042609,77.1875 32.5217391,77.1875 L51.7391304,77.1875 C52.5551304,77.1875 53.2173913,76.5239844 53.2173913,75.703125 C53.2173913,74.8822656 52.5551304,74.21875 51.7391304,74.21875 L51.7391304,74.21875 Z" id="Shape"></path>
                </g>
            </g>
        </g>
    </g>
</svg>