<svg xmlns="http://www.w3.org/2000/svg" xmlns:xlink="http://www.w3.org/1999/xlink" version="1.1" x="0px" y="0px" viewBox="0 0 24 24" style="enable-background:new 0 0 24 24; fill: #ccc" xml:space="preserve"><path d="M20,11c-0.603,0-1.139,0.27-1.504,0.693C18.332,11.884,18.099,12,17.847,12C17.379,12,17,11.621,17,11.153V10V9  c0-1.105-0.896-2-2-2h-1h-1.153C12.379,7,12,6.621,12,6.153V6.152c0-0.249,0.113-0.482,0.302-0.644  c0.541-0.463,0.833-1.205,0.636-2.01c-0.173-0.707-0.75-1.278-1.459-1.442C10.167,1.751,9,2.739,9,4c0,0.603,0.27,1.139,0.693,1.504  C9.884,5.668,10,5.901,10,6.153C10,6.621,9.621,7,9.153,7H8H5C3.896,7,3,7.896,3,9v1v1.153C3,11.621,3.379,12,3.847,12  c0.251,0,0.485-0.116,0.649-0.307C4.861,11.27,5.397,11,6,11c1.261,0,2.249,1.167,1.944,2.48c-0.165,0.709-0.735,1.286-1.442,1.459  c-0.805,0.197-1.547-0.096-2.01-0.636C4.33,14.113,4.097,14,3.848,14H3.847C3.379,14,3,14.379,3,14.847V16v3c0,1.105,0.896,2,2,2h3  h1.153C9.621,21,10,20.621,10,20.153c0-0.251-0.116-0.485-0.307-0.649C9.27,19.139,9,18.603,9,18c0-1.261,1.167-2.249,2.48-1.944  c0.709,0.165,1.286,0.735,1.459,1.442c0.197,0.805-0.096,1.547-0.636,2.01C12.113,19.67,12,19.903,12,20.152v0.001  C12,20.621,12.379,21,12.847,21H14h1c1.105,0,2-0.896,2-2v-3v-1.153C17,14.379,17.379,14,17.847,14h0.001  c0.249,0,0.482,0.113,0.644,0.302c0.463,0.541,1.205,0.833,2.01,0.636c0.707-0.173,1.278-0.75,1.442-1.459  C22.249,12.167,21.261,11,20,11z"/></svg>
