<svg id="Layer_1" data-name="Layer 1" xmlns="http://www.w3.org/2000/svg" viewBox="0 0 48 48"><title>01. General</title><path d="M45,3.09a10.26,10.26,0,0,0-14.69,0L19.94,13.63A10.7,10.7,0,0,0,19,27.48h0a10.49,10.49,0,0,0,.9,1l1.44-1.42a8.61,8.61,0,0,1-.73-0.84l-0.81.61,0.81-.61A8.66,8.66,0,0,1,21.38,15L31.73,4.51a8.24,8.24,0,0,1,11.8,0,8.66,8.66,0,0,1,0,12.09l-6.92,7.48,1.48,1.37L45,18A10.68,10.68,0,0,0,45,3.09Z"/><path d="M26.26,21.26a8.65,8.65,0,0,1,0,12.07l-10,10.16a8.24,8.24,0,0,1-11.8,0,8.65,8.65,0,0,1,0-12.08l6.66-7L9.68,23,3,30a10.68,10.68,0,0,0,0,14.9,10.26,10.26,0,0,0,14.69,0l10-10.16a10.68,10.68,0,0,0,0-14.9Z"/></svg>