<?xml version="1.0" encoding="UTF-8" standalone="no"?>
<svg width="35px" height="35px" viewBox="0 0 35 35" version="1.1" xmlns="http://www.w3.org/2000/svg" xmlns:xlink="http://www.w3.org/1999/xlink" xmlns:sketch="http://www.bohemiancoding.com/sketch/ns">
    <!-- Generator: Sketch 3.3.3 (12072) - http://www.bohemiancoding.com/sketch -->
    <title>Slice 1</title>
    <desc>Created with Sketch.</desc>
    <defs></defs>
    <g id="Page-1" stroke="none" stroke-width="1" fill="none" fill-rule="evenodd" sketch:type="MSPage">
        <path d="M34.8054125,16.5951677 C34.3950143,7.66304384 27.1614744,0.429504013 18.2293505,0.0187960481 C7.98457179,-0.452000412 -0.452286622,7.98454826 0.018819573,18.2296368 C0.429217803,27.1614509 7.66275763,34.3949907 16.5948815,34.8056987 C26.8396603,35.2768049 35.2765187,26.8399465 34.8054125,16.5951677 L34.8054125,16.5951677 Z M6.99527975,14.3570261 C6.73572223,14.1736633 6.61678417,13.8472031 6.72519125,13.5483093 C8.40952754,8.8967164 13.0258107,5.71636242 18.1999258,6.07844207 C21.6135098,6.31755711 24.5720939,8.04959251 26.4834656,10.5903447 C27.3135541,11.6945483 26.1879789,12.8362297 24.6157665,14.0194155 C23.1123151,15.1508757 21.6181559,16.0714067 21.6181559,16.0714067 C20.7078461,16.5428226 19.6104567,16.4660084 18.7751028,15.8722474 L16.37497,14.1668491 C15.539616,13.5733978 14.4422267,13.4965837 13.5322267,13.9679996 L10.9171382,15.3224686 C10.0071382,15.7938845 8.91005851,15.7170704 8.07470453,15.1236191 L6.99961603,14.3601235 C6.9983771,14.3588845 6.99682842,14.3579553 6.99527975,14.3570261 L6.99527975,14.3570261 Z M28.0990408,21.2761854 C26.4147045,25.9277783 21.7984213,29.1081323 16.6243063,28.7460527 C13.2107222,28.5072474 10.2518284,26.775212 8.34076648,24.23415 C7.51067798,23.1302562 8.6362532,21.9885748 10.2084656,20.805389 C11.7119169,19.6736191 13.2060762,18.7533978 13.2060762,18.7533978 C14.1163859,18.2816722 15.2134656,18.3584863 16.0491293,18.9522474 L18.4492621,20.6576456 C19.284616,21.2514067 20.3820054,21.3282208 21.2920054,20.8568049 L23.9070939,19.5020261 C24.8170939,19.0306102 25.9141736,19.1074244 26.7495275,19.7008757 L27.8243063,20.464681 C27.825855,20.4656102 27.8274036,20.4665394 27.8289523,20.4677783 C28.0885098,20.6511412 28.2074479,20.9772916 28.0990408,21.2761854 L28.0990408,21.2761854 Z" id="Baikal-Logo" fill="#FFFFFF" sketch:type="MSShapeGroup"></path>
    </g>
</svg>